<svg width="247" height="31" viewBox="0 0 247 31" fill="none" xmlns="http://www.w3.org/2000/svg">
<path fill-rule="evenodd" clip-rule="evenodd" d="M25.517 0C18.712 0 14.46 3.382 12.758 10.146C15.31 6.764 18.287 5.496 21.689 6.341C23.63 6.823 25.018 8.223 26.553 9.773C29.055 12.297 31.951 15.218 38.275 15.218C45.079 15.218 49.332 11.836 51.033 5.073C48.482 8.455 45.505 9.723 42.103 8.877C40.161 8.395 38.773 6.995 37.238 5.446C34.736 2.92 31.841 0 25.517 0ZM12.758 15.218C5.954 15.218 1.701 18.6 0 25.364C2.552 21.982 5.529 20.714 8.93 21.559C10.872 22.041 12.26 23.441 13.795 24.991C16.297 27.515 19.192 30.436 25.517 30.436C32.321 30.436 36.574 27.055 38.275 20.291C35.723 23.673 32.746 24.941 29.344 24.096C27.403 23.613 26.015 22.213 24.48 20.664C21.978 18.14 19.082 15.218 12.758 15.218V15.218Z" fill="#38BDF8"/>
<path fill-rule="evenodd" clip-rule="evenodd" d="M76.546 12.825H72.093V21.392C72.093 23.677 73.601 23.641 76.546 23.498V26.961C70.584 27.675 68.214 26.033 68.214 21.392V12.825H64.91V9.11199H68.214V4.31799L72.093 3.17499V9.11199H76.546V12.825ZM93.52 9.11199H97.398V26.961H93.52V24.391C92.155 26.282 90.036 27.425 87.235 27.425C82.351 27.425 78.293 23.32 78.293 18.036C78.293 12.718 82.351 8.64799 87.235 8.64799C90.036 8.64799 92.155 9.78999 93.52 11.647V9.11199V9.11199ZM87.846 23.748C91.078 23.748 93.52 21.356 93.52 18.036C93.52 14.716 91.078 12.325 87.846 12.325C84.614 12.325 82.172 14.717 82.172 18.036C82.172 21.356 84.614 23.748 87.846 23.748ZM103.862 6.43499C102.498 6.43499 101.385 5.29299 101.385 3.97199C101.388 3.31732 101.651 2.69057 102.115 2.22895C102.579 1.76733 103.207 1.50846 103.862 1.50899C104.517 1.50819 105.145 1.76695 105.61 2.2286C106.074 2.69024 106.337 3.31714 106.34 3.97199C106.34 5.29199 105.227 6.43499 103.862 6.43499ZM101.923 26.961V9.11199H105.802V26.961H101.923ZM110.291 26.961V0.899994H114.169V26.96H110.291V26.961ZM139.344 9.11199H143.438L137.8 26.961H133.993L130.258 14.931L126.487 26.961H122.681L117.042 9.11199H121.136L124.62 21.427L128.391 9.11199H132.09L135.824 21.427L139.344 9.11199V9.11199ZM148.25 6.43499C146.885 6.43499 145.772 5.29299 145.772 3.97199C145.775 3.31714 146.038 2.69024 146.502 2.2286C146.967 1.76695 147.595 1.50819 148.25 1.50899C148.905 1.50819 149.533 1.76695 149.998 2.2286C150.462 2.69024 150.725 3.31714 150.728 3.97199C150.728 5.29199 149.615 6.43499 148.25 6.43499ZM146.311 26.961V9.11199H150.189V26.961H146.311V26.961ZM164.123 8.64799C168.145 8.64799 171.018 11.361 171.018 16.002V26.96H167.14V16.394C167.14 13.681 165.56 12.254 163.118 12.254C160.568 12.254 158.557 13.753 158.557 17.394V26.961H154.678V9.11199H158.557V11.397C159.742 9.54099 161.681 8.64799 164.123 8.64799V8.64799ZM189.405 1.97299H193.284V26.96H189.405V24.39C188.041 26.282 185.922 27.424 183.121 27.424C178.237 27.424 174.179 23.319 174.179 18.035C174.179 12.717 178.237 8.64699 183.121 8.64699C185.922 8.64699 188.041 9.78899 189.405 11.646V1.97299V1.97299ZM183.731 23.748C186.963 23.748 189.405 21.356 189.405 18.036C189.405 14.716 186.963 12.325 183.731 12.325C180.499 12.325 178.057 14.717 178.057 18.036C178.057 21.356 180.499 23.748 183.731 23.748ZM206.284 27.425C200.861 27.425 196.803 23.32 196.803 18.036C196.803 12.718 200.861 8.64799 206.284 8.64799C209.803 8.64799 212.856 10.468 214.292 13.253L210.952 15.181C210.162 13.503 208.403 12.432 206.248 12.432C203.088 12.432 200.682 14.824 200.682 18.036C200.682 21.249 203.088 23.641 206.248 23.641C208.403 23.641 210.162 22.534 211.024 20.892L214.364 22.784C212.856 25.604 209.803 27.424 206.284 27.424V27.425ZM220.756 14.038C220.756 17.287 230.417 15.323 230.417 21.928C230.417 25.498 227.292 27.425 223.414 27.425C219.823 27.425 217.237 25.818 216.088 23.248L219.428 21.321C220.002 22.927 221.439 23.891 223.414 23.891C225.138 23.891 226.466 23.32 226.466 21.891C226.466 18.715 216.806 20.5 216.806 14.11C216.806 10.754 219.715 8.64799 223.378 8.64799C226.323 8.64799 228.765 10.005 230.022 12.361L226.754 14.181C226.107 12.789 224.85 12.146 223.378 12.146C221.977 12.146 220.756 12.753 220.756 14.038V14.038ZM237.312 14.038C237.312 17.287 246.972 15.323 246.972 21.928C246.972 25.498 243.848 27.425 239.969 27.425C236.378 27.425 233.793 25.818 232.643 23.248L235.983 21.321C236.558 22.927 237.994 23.891 239.969 23.891C241.693 23.891 243.022 23.32 243.022 21.891C243.022 18.715 233.362 20.5 233.362 14.11C233.362 10.754 236.27 8.64799 239.934 8.64799C242.878 8.64799 245.32 10.005 246.577 12.361L243.309 14.181C242.663 12.789 241.406 12.146 239.934 12.146C238.533 12.146 237.312 12.753 237.312 14.038V14.038Z" fill="black"/>
</svg>
