<svg width="100" height="35" viewBox="0 0 100 35" fill="none" xmlns="http://www.w3.org/2000/svg">
<path d="M31.839 11.667C31.839 5.4447 28.4875 1.556 21.785 0C25.1364 2.3333 26.3932 5.0556 25.5554 8.1667C25.0773 9.9418 23.6901 11.2105 22.1545 12.6148C19.6529 14.9025 16.7577 17.5502 16.7577 23.3328C16.7577 29.5551 20.1092 33.4438 26.8117 34.9998C23.4602 32.6665 22.2034 29.9442 23.0413 26.8331C23.5193 25.0581 24.9066 23.7893 26.4422 22.385C28.9437 20.0973 31.8389 17.4496 31.8389 11.667H31.839Z" fill="url(#paint0_linear_508_14)"/>
<path d="M-1.90735e-06 11.667C-1.90735e-06 5.4447 3.3515 1.556 10.054 0C6.7026 2.3333 5.4458 5.0556 6.2836 8.1667C6.7617 9.9418 8.1489 11.2105 9.6845 12.6148C12.1861 14.9025 15.0813 17.5502 15.0813 23.3328C15.0813 29.5551 11.7298 33.4438 5.0273 34.9998C8.3788 32.6665 9.6356 29.9442 8.7977 26.8331C8.3197 25.0581 6.9324 23.7893 5.3968 22.385C2.8953 20.0973 9.91821e-05 17.4496 9.91821e-05 11.667H-1.90735e-06Z" fill="url(#paint1_linear_508_14)"/>
<path d="M50.594 15.872H46.6459V23.472C46.6459 25.4987 47.9832 25.467 50.594 25.3403V28.412C45.3087 29.0453 43.2073 27.5887 43.2073 23.472V15.872H40.2781V12.5787H43.2073V8.32528L46.6459 7.31198V12.5787H50.594V15.872V15.872ZM71.918 12.5787H75.5477L70.5489 28.4117H67.174L63.8627 17.7397L60.5196 28.4117H57.1446L52.1459 12.5787H55.7756L58.864 23.5037L62.2071 12.5787H65.4865L68.7978 23.5037L71.918 12.5787V12.5787ZM79.8141 10.2037C78.6042 10.2037 77.6172 9.19028 77.6172 8.01868C77.6172 6.81538 78.6042 5.83368 79.8141 5.83368C81.024 5.83368 82.011 6.81535 82.011 8.01868C82.011 9.19038 81.024 10.2037 79.8141 10.2037ZM78.0948 28.4117V12.5787H81.5334V28.4117H78.0948ZM93.8868 12.1667C97.4528 12.1667 99.9999 14.5734 99.9999 18.69V28.4117H96.5613V19.0384C96.5613 16.6317 95.1603 15.365 92.9953 15.365C90.7347 15.365 88.9517 16.695 88.9517 19.925V28.4117H85.5131V12.5787H88.9517V14.6053C90.0024 12.9587 91.7217 12.167 93.8868 12.167V12.1667Z" fill="black"/>
<defs>
<linearGradient id="paint0_linear_508_14" x1="29.5" y1="7.5" x2="19" y2="26.5" gradientUnits="userSpaceOnUse">
<stop stop-color="#C82AF6"/>
<stop offset="1" stop-color="#3F32F5"/>
</linearGradient>
<linearGradient id="paint1_linear_508_14" x1="2.33899" y1="7.5" x2="12.839" y2="26.5" gradientUnits="userSpaceOnUse">
<stop stop-color="#C82AF6"/>
<stop offset="1" stop-color="#3F32F5"/>
</linearGradient>
</defs>
</svg>
